{"title":"Tron Legacy 2010 XviD BRRIP DTRG SAFCuk009","uid":6230851,"size":2066908962,"categoryP":"video","categoryS":"movies","magnet":"?xt=urn:btih:bad57332a694c11b077155d87898b828f4300ee2&amp;dn=Tron+Legacy+2010+XviD+BRRIP+DTRG+SAFCuk009&amp;tr=udp%3A%2F%2Ftracker.openbittorrent.com%3A80&amp;tr=udp%3A%2F%2Fopen.demonii.com%3A1337&amp;tr=udp%3A%2F%2Ftracker.coppersurfer.tk%3A6969&amp;tr=udp%3A%2F%2Fexodus.desync.com%3A6969","seeders":0,"leechers":1,"uploader":"SAFCukO09","files":3,"time":1299708203,"description":"Format : AVI\nFormat/Info : Audio Video Interleave\nFormat profile : OpenDML\nFile size : 1.92 GiB\nDuration : 1h 58mn\nOverall bit rate : 2 321 Kbps\nWriting library : MPlayer\n\nVideo\nID : 0\nFormat : MPEG-4 Visual\nFormat profile : Advanced Simple@L5\nFormat settings, BVOP : Yes\nFormat settings, QPel : No\nFormat settings, GMC : No warppoints\nFormat settings, Matrix : Default (MPEG)\nCodec ID : XVID\nCodec ID/Hint : XviD\nDuration : 1h 58mn\nBit rate : 1 868 Kbps\nWidth : 720 pixels\nHeight : 304 pixels\nDisplay aspect ratio : 2.35:1\nFrame rate : 23.976 fps\nColor space : YUV\nChroma subsampling : 4:2:0\nBit depth : 8 bits\nScan type : Progressive\nBits/(Pixel*Frame) : 0.356\nStream size : 1.55 GiB (80%)\nWriting library : XviD 1.2.1 (UTC 2008-12-04)\n\nAudio\nID : 1\nFormat : AC-3\nFormat/Info : Audio Coding 3\nMode extension : CM (complete main)\nCodec ID : 2000\nDuration : 1h 58mn\nBit rate mode : Constant\nBit rate : 448 Kbps\nChannel(s) : 6 channels\nChannel positions : Front: L C R, Side: L R, LFE\nSampling rate : 48.0 KHz\nBit depth : 16 bits\nStream size : 380 MiB (19%)\nAlignment : Split accross interleaves\nInterleave, duration : 500 ms (11.99 video frames)\nInterleave, preload duration : 500 ms\n\n\n\n &lt;a href=&quot;\nhttp://www.imdb.com/title/tt1104001/&quot; rel=&quot;nofollow&quot; target=&quot;_NEW&quot;&gt;\nhttp://www.imdb.com/title/tt1104001/&lt;/a&gt;\n\n\n\n\n\n\n\nUsers: 7.2/10 (44,047 votes) 491 reviews | Critics: 324 reviews Metascore: 49/100 (based on 40 reviews from Metacritic.com)\n\nThe son of a virtual world designer goes looking for his father and ends up inside the digital world that his father designed. He meets his father's creation turned bad and a unique ally who was born inside the digital domain of The Grid.\nDirector:\nJoseph Kosinski\nWriters:\nEdward Kitsis (screenplay), Adam Horowitz (screenplay), and 6 more credits Ã‚Â»\nStars:\nJeff Bridges, Garrett Hedlund and Olivia Wilde\n\n","torrent":{"xt":"urn:btih:bad57332a694c11b077155d87898b828f4300ee2","amp;dn":"Tron+Legacy+2010+XviD+BRRIP+DTRG+SAFCuk009","amp;tr":["udp%3A%2F%2Ftracker.openbittorrent.com%3A80","udp%3A%2F%2Fopen.demonii.com%3A1337","udp%3A%2F%2Ftracker.coppersurfer.tk%3A6969","udp%3A%2F%2Fexodus.desync.com%3A6969"],"infoHash":"bad57332a694c11b077155d87898b828f4300ee2","infoHashBuffer":{"type":"Buffer","data":[186,213,115,50,166,148,193,27,7,113,85,216,120,152,184,40,244,48,14,226]},"announce":[],"urlList":[]}}